#!OML:ASF F:\VICON\USERDATA\INSTALL\rory3\rory3.ASF
:FULLY-SPECIFIED
:DEGREES
1313
root -0.447549 18.9638 3.43435 9.72176 -95.6029 -11.9998
lowerback 4.59179 -0.691887 -4.48883
upperback -6.51009 -1.05591 6.83458
thorax -9.3785 -0.00262081 10.1664
lowerneck -26.4642 -2.60927 -14.3239
upperneck -1.88196 -0.607624 14.1782
head 3.64702 0.373681 6.85425
rclavicle -5.56597e-015 2.70347e-014
rhumerus 65.9221 -37.1256 -25.3409
rradius 48.0366
rwrist 4.60677
rhand -36.3633 7.39571
rfingers 7.12502
rthumb -9.46038 -22.3719
lclavicle -5.56597e-015 2.70347e-014
lhumerus 79.6796 34.4683 31.5156
lradius 21.9204
lwrist -18.5463
lhand -10.8922 33.9145
lfingers 7.12502
lthumb 15.1243 63.3418
rfemur -14.5301 4.11984 10.2339
rtibia 45.2094
rfoot 17.7159 -8.52541
rtoes 17.1268
lfemur -1.95727 -3.15775 -24.9683
ltibia 26.6897
lfoot 13.0504 6.04637
ltoes -28.5435
1314
root -0.448282 18.9843 3.38392 8.73238 -95.6826 -10.9359
lowerback 4.55903 -0.624108 -4.33304
upperback -6.7355 -0.966119 6.4861
thorax -9.62787 0.034657 9.67748
lowerneck -26.1864 -2.8242 -14.1058
upperneck -2.02934 -0.988838 14.3491
head 3.62514 0.188081 6.83118
rclavicle 6.36111e-015 -1.74931e-014
rhumerus 69.2767 -36.8203 -27.5213
rradius 45.7887
rwrist 5.40527
rhand -36.1314 7.23684
rfingers 7.12502
rthumb -9.23663 -22.5408
lclavicle 6.36111e-015 -1.74931e-014
lhumerus 79.691 34.0813 30.9612
lradius 22.0649
lwrist -18.3407
lhand -10.8363 33.5725
lfingers 7.12502
lthumb 15.1782 62.9959
rfemur -14.4365 4.40944 10.878
rtibia 44.8539
rfoot 17.4949 -9.30454
rtoes 18.1126
lfemur -2.37529 -2.93536 -24.6186
ltibia 27.0587
lfoot 13.7832 5.89706
ltoes -28.5638
1315
root -0.44918 18.9984 3.32994 9.0106 -95.6834 -11.1581
lowerback 4.52227 -0.60031 -4.28216
upperback -6.91202 -0.944313 6.18161
thorax -9.80628 0.0423867 9.30714
lowerneck -26.314 -3.20959 -14.104
upperneck -2.08371 -1.49301 14.5339
head 3.70429 -0.046265 6.84195
rclavicle -1.90833e-014 1.74931e-014
rhumerus 72.726 -36.3863 -29.629
rradius 43.5679
rwrist 5.90799
rhand -35.9654 7.02605
rfingers 7.12502
rthumb -9.07639 -22.7587
lclavicle -1.90833e-014 1.74931e-014
lhumerus 79.8806 33.8107 30.6766
lradius 22.1031
lwrist -18.2372
lhand -10.9272 33.3254
lfingers 7.12502
lthumb 15.0906 62.7554
rfemur -14.2474 4.71141 11.3663
rtibia 44.4394
rfoot 17.4863 -9.71389
rtoes 17.0359
lfemur -2.83174 -2.63987 -24.3643
ltibia 27.4954
lfoot 14.6122 5.49549
ltoes -29.0094
1316
root -0.447917 19.0102 3.27562 9.08073 -95.6109 -11.1661
lowerback 4.51408 -0.624662 -4.23714
upperback -7.08677 -0.984543 6.01316
thorax -9.9891 0.024102 9.10474
lowerneck -26.6471 -3.61843 -15.0125
upperneck -1.83709 -1.77329 15.2238
head 3.89427 -0.126267 7.20844
rclavicle 5.96354e-015 -5.40694e-014
rhumerus 75.8595 -35.7885 -31.0314
rradius 41.555
rwrist 5.77611
rhand -35.829 6.16164
rfingers 7.12502
rthumb -8.94478 -23.6287
lclavicle 5.96354e-015 -5.40694e-014
lhumerus 79.3762 33.6861 29.6695
lradius 22.2328
lwrist -17.6494
lhand -11.0637 33.1154
lfingers 7.12502
lthumb 14.9591 62.5551
rfemur -13.9664 4.88321 11.8826
rtibia 44.0045
rfoot 17.0071 -10.4163
rtoes 14.1329
lfemur -3.33943 -2.56127 -24.0584
ltibia 27.9882
lfoot 15.5728 5.36173
ltoes -28.759
1317
root -0.442966 19.0224 3.21875 9.08868 -95.5787 -11.1384
lowerback 4.62973 -0.484422 -4.21981
upperback -7.37377 -0.812495 5.78094
thorax -10.4152 0.122382 8.83427
lowerneck -26.5551 -4.01894 -16.0933
upperneck -1.60682 -2.02203 15.8676
head 4.02087 -0.201769 7.58853
rclavicle 7.15625e-015 1.43125e-014
rhumerus 78.2618 -35.1532 -31.8991
rradius 39.653
rwrist 5.68772
rhand -35.8366 4.86551
rfingers 7.12502
rthumb -8.95209 -24.9246
lclavicle 7.15625e-015 1.43125e-014
lhumerus 79.5219 33.2286 29.4647
lradius 22.2251
lwrist -17.7699
lhand -10.7773 32.8586
lfingers 7.12502
lthumb 15.235 62.2776
rfemur -13.6362 5.25941 12.3951
rtibia 43.5762
rfoot 15.9585 -11.5133
rtoes 11.9276
lfemur -3.86099 -2.35981 -23.7119
ltibia 28.5216
lfoot 16.5167 5.33358
ltoes -27.8712
1318
root -0.438538 19.03 3.15962 9.06987 -95.6034 -11.0519
lowerback 4.71779 -0.21845 -4.12382
upperback -7.75316 -0.474739 5.41998
thorax -10.9592 0.293156 8.35296
lowerneck -26.0744 -4.65453 -17.1714
upperneck -1.44814 -2.64526 16.6966
head 4.14947 -0.462173 7.98715
rclavicle 6.75868e-015 3.02153e-014
rhumerus 80.6183 -34.3936 -33.3694
rradius 37.7409
rwrist 6.35808
rhand -35.6303 4.12082
rfingers 7.12502
rthumb -8.75306 -25.6777
lclavicle 6.75868e-015 3.02153e-014
lhumerus 79.9862 32.4524 29.3841
lradius 22.1724
lwrist -17.7303
lhand -10.7334 32.7575
lfingers 7.12502
lthumb 15.2773 62.1733
rfemur -13.3338 5.88374 12.8773
rtibia 43.1338
rfoot 14.8025 -12.5992
rtoes 12.0696
lfemur -4.44893 -1.926 -23.3306
ltibia 29.0934
lfoot 17.3809 5.04419
ltoes -27.6241
1319
root -0.434916 19.0321 3.10026 9.99999 -95.5579 -11.8961
lowerback 4.74026 -0.125471 -4.14366
upperback -8.04641 -0.385395 5.01722
thorax -11.3192 0.338632 7.9149
lowerneck -25.7691 -4.92681 -17.3795
upperneck -1.40146 -2.99748 16.9354
head 4.19551 -0.626544 8.06237
rclavicle -2.38542e-015 -9.54166e-015
rhumerus 83.2128 -33.5128 -35.204
rradius 35.9
rwrist 7.11055
rhand -35.5798 4.2452
rfingers 7.12502
rthumb -8.7043 -25.5553
lclavicle -2.38542e-015 -9.54166e-015
lhumerus 79.6898 31.9437 28.0243
lradius 22.3363
lwrist -16.6903
lhand -11.1927 32.6825
lfingers 7.12502
lthumb 14.8349 62.1314
rfemur -13.005 6.49621 13.2357
rtibia 42.6501
rfoot 13.9227 -13.2183
rtoes 12.9949
lfemur -5.09026 -1.4224 -22.9934
ltibia 29.6982
lfoot 18.302 4.20513
ltoes -28.2991
1320
root -0.430392 19.0333 3.04175 10.4714 -95.4033 -12.3124
lowerback 4.77149 -0.0601786 -4.11716
upperback -8.24565 -0.326992 4.63821
thorax -11.5712 0.358836 7.47597
lowerneck -25.6542 -5.23322 -17.6612
upperneck -1.42631 -3.35391 17.2529
head 4.25241 -0.784636 8.17881
rclavicle -5.1684e-015 1.59028e-015
rhumerus 85.3907 -32.829 -36.3175
rradius 34.1532
rwrist 7.48387
rhand -35.4845 4.37732
rfingers 7.12502
rthumb -8.61236 -25.427
lclavicle -5.1684e-015 1.59028e-015
lhumerus 79.9384 31.5906 27.4349
lradius 22.4215
lwrist -16.3046
lhand -11.169 32.6008
lfingers 7.12502
lthumb 14.8577 62.0481
rfemur -12.6192 6.68051 13.5841
rtibia 42.1155
rfoot 13.5276 -13.2428
rtoes 13.3981
lfemur -5.72498 -0.868595 -22.5259
ltibia 30.3242
lfoot 19.3215 3.40862
ltoes -27.7129
1321
root -0.424451 19.038 2.9843 9.88437 -95.2224 -11.6107
lowerback 4.77685 0.107542 -3.97351
upperback -8.47219 -0.118754 4.29597
thorax -11.8621 0.44201 6.99038
lowerneck -25.3322 -5.67046 -18.3396
upperneck -1.5276 -3.7934 17.659
head 4.28326 -0.98444 8.38187
rclavicle -3.97569e-016 4.92986e-014
rhumerus 87.1491 -32.2569 -37.069
rradius 32.5338
rwrist 8.13421
rhand -35.1486 3.91083
rfingers 7.12502
rthumb -8.28823 -25.9066
lclavicle -3.97569e-016 4.92986e-014
lhumerus 80.7071 31.1608 27.6744
lradius 22.3895
lwrist -16.4492
lhand -11.2616 32.4181
lfingers 7.12502
lthumb 14.7685 61.8719
rfemur -12.2918 6.57755 13.9997
rtibia 41.5141
rfoot 13.2893 -13.0925
rtoes 11.9586
lfemur -6.42004 -0.315943 -21.9151
ltibia 30.9651
lfoot 20.1779 3.22984
ltoes -25.424
1322
root -0.418504 19.0377 2.92825 9.99149 -95.0205 -11.6421
lowerback 4.92501 0.17197 -3.76065
upperback -8.75682 -0.0624084 3.80214
thorax -12.2792 0.439863 6.32376
lowerneck -25.034 -5.91366 -18.6685
upperneck -1.46695 -4.08993 18.0116
head 4.33852 -1.11643 8.52534
rclavicle 5.96354e-015 5.1684e-014
rhumerus 88.5608 -31.5386 -37.9863
rradius 31.183
rwrist 8.85643
rhand -34.7717 3.64445
rfingers 7.12502
rthumb -7.9244 -26.187
lclavicle 5.96354e-015 5.1684e-014
lhumerus 81.0628 30.7147 27.1569
lradius 22.5033
lwrist -16.2807
lhand -11.685 32.3769
lfingers 7.12502
lthumb 14.3606 61.8602
rfemur -11.8838 6.83226 14.3742
rtibia 40.8612
rfoot 12.6727 -13.3419
rtoes 9.01887
lfemur -7.04256 0.313338 -21.3453
ltibia 31.6257
lfoot 20.8637 2.51828
ltoes -23.8241
1323
root -0.411442 19.0363 2.87073 11.3101 -94.7917 -12.8859
lowerback 5.10712 0.228475 -3.71761
upperback -9.01027 -0.0410638 3.2736
thorax -12.6813 0.431287 5.72063
lowerneck -24.8932 -6.145 -18.7724
upperneck -1.33617 -4.41026 18.2287
head 4.43268 -1.26217 8.58013
rclavicle 5.56597e-015 -1.43125e-014
rhumerus 89.6803 -30.9336 -38.7007
rradius 30.069
rwrist 9.52925
rhand -34.3744 3.65696
rfingers 7.12502
rthumb -7.54095 -26.1886
lclavicle 5.56597e-015 -1.43125e-014
lhumerus 81.7861 30.3047 27.1182
lradius 22.5381
lwrist -16.4457
lhand -11.8932 31.4312
lfingers 7.12502
lthumb 14.1599 60.9286
rfemur -11.4484 7.58222 14.6837
rtibia 40.1815
rfoot 11.2007 -14.6799
rtoes 8.98713
lfemur -7.67431 0.902252 -20.8277
ltibia 32.2958
lfoot 21.534 1.4353
ltoes -22.5972
1324
root -0.402268 19.0315 2.81456 12.7204 -94.4614 -14.1554
lowerback 5.10464 0.465003 -3.87515
upperback -9.18521 0.214543 2.83839
thorax -12.9151 0.551601 5.29111
lowerneck -24.7658 -6.59682 -19.0501
upperneck -1.25442 -4.95202 18.3278
head 4.55137 -1.52072 8.59236
rclavicle -9.34288e-015 -2.22639e-014
rhumerus 90.2312 -30.8303 -38.4941
rradius 29.1979
rwrist 10.1666
rhand -33.4456 2.69782
rfingers 7.12502
rthumb -6.64439 -27.1779
lclavicle -9.34288e-015 -2.22639e-014
lhumerus 83.725 29.7162 28.9409
lradius 22.2811
lwrist -17.4511
lhand -12.156 28.248
lfingers 7.12502
lthumb 13.9067 57.763
rfemur -11.1287 7.84163 14.9533
rtibia 39.5172
rfoot 9.64293 -15.996
rtoes 10.9711
lfemur -8.32515 1.18582 -20.2819
ltibia 32.9445
lfoot 22.0951 -0.0528516
ltoes -22.343
